<svg width="43" height="35" viewBox="0 0 43 35" fill="none" xmlns="http://www.w3.org/2000/svg">
<path d="M42.2441 22.4507C42.2441 29.3705 36.6346 34.98 29.7149 34.98L10.921 34.98C8.99887 34.98 7.44067 33.4218 7.44067 31.4996L7.44067 7.83327C7.44067 3.98898 10.5571 0.872575 14.4014 0.872575L38.7638 0.872577C40.6859 0.872578 42.2441 2.43078 42.2441 4.35293L42.2441 22.4507Z" fill="#E8F5E9"/>
<path d="M9.87237 20.5083H6.28526C5.86074 20.5083 5.5166 20.827 5.5166 21.2203V31.6625C5.5166 32.0558 5.86074 32.3745 6.28526 32.3745H9.87237C10.2969 32.3745 10.641 32.0558 10.641 31.6625V21.2203C10.641 20.827 10.2969 20.5083 9.87237 20.5083Z" stroke="black" stroke-width="2.17839" stroke-linecap="round" stroke-linejoin="round"/>
<path d="M25.2463 20.5083H21.6593C21.2347 20.5083 20.8906 20.827 20.8906 21.2203V31.6625C20.8906 32.0558 21.2347 32.3745 21.6593 32.3745H25.2463C25.6709 32.3745 26.015 32.0558 26.015 31.6625V21.2203C26.015 20.827 25.6709 20.5083 25.2463 20.5083Z" stroke="black" stroke-width="2.17839" stroke-linecap="round" stroke-linejoin="round"/>
<path d="M1.67383 29.2891V23.5933C1.67383 23.2001 2.01797 22.8813 2.44249 22.8813H4.74848C5.173 22.8813 5.51714 23.2001 5.51714 23.5933V29.2891C5.51714 29.6823 5.173 30.0011 4.74848 30.0011H2.44249C2.01797 30.0011 1.67383 29.6823 1.67383 29.2891Z" stroke="black" stroke-width="2.17839" stroke-linecap="round" stroke-linejoin="round"/>
<path d="M29.8579 29.2891V23.5933C29.8579 23.2001 29.5139 22.8813 29.0893 22.8813H26.7833C26.3588 22.8813 26.0146 23.2001 26.0146 23.5933V29.2891C26.0146 29.6823 26.3588 30.0011 26.7833 30.0011H29.0893C29.5139 30.0011 29.8579 29.6823 29.8579 29.2891Z" stroke="black" stroke-width="2.17839" stroke-linecap="round" stroke-linejoin="round"/>
<path d="M10.6416 26.4414H20.8904" stroke="black" stroke-width="2.17839" stroke-linecap="round" stroke-linejoin="round"/>
</svg>
