<svg width="46" height="44" viewBox="0 0 46 44" fill="none" xmlns="http://www.w3.org/2000/svg">
<path d="M45.2441 26.4507C45.2441 33.3705 39.6346 38.98 32.7149 38.98L13.921 38.98C11.9989 38.98 10.4407 37.4218 10.4407 35.4996L10.4407 11.8333C10.4407 7.98898 13.5571 4.87257 17.4014 4.87258L41.7638 4.87258C43.6859 4.87258 45.2441 6.43078 45.2441 8.35293L45.2441 26.4507Z" fill="#E8F5E9"/>
<path d="M19.0568 42.0199L18.8262 41.9762L18.5956 42.0199C14.8701 42.7255 11.3529 42.3332 8.78358 40.3866C6.22782 38.4505 4.32617 34.7602 4.32617 28.2674C4.32617 21.6273 5.90615 18.9297 7.98709 17.9444C9.07554 17.429 10.4831 17.279 12.2742 17.4747C14.0631 17.6702 16.1273 18.198 18.4543 18.9326L18.863 19.0616L19.2627 18.9101C23.153 17.4365 26.6497 16.872 29.106 17.9575C31.4092 18.9753 33.3262 21.7259 33.3262 28.2674C33.3262 34.7602 31.4246 38.4505 28.8688 40.3866C26.2994 42.3332 22.7822 42.7255 19.0568 42.0199Z" stroke="black" stroke-width="2"/>
<path d="M18.8257 18.6183C18.8257 14.9073 17.2582 13.4229 14.123 13.4229" stroke="black" stroke-width="2" stroke-linecap="round" stroke-linejoin="round"/>
</svg>
